<?xml version="1.0" standalone="no"?>
<!DOCTYPE svg PUBLIC "-//W3C//DTD SVG 20010904//EN"
 "http://www.w3.org/TR/2001/REC-SVG-20010904/DTD/svg10.dtd">
<svg version="1.0" xmlns="http://www.w3.org/2000/svg"
 width="169.000000pt" height="169.000000pt" viewBox="0 0 169.000000 169.000000"
 preserveAspectRatio="xMidYMid meet">
<metadata>
Created by potrace 1.11, written by Peter Selinger 2001-2013
</metadata>
<g transform="translate(0.000000,169.000000) scale(0.100000,-0.100000)"
fill="#000000" stroke="none">
<path d="M685 1676 c-170 -34 -309 -108 -436 -235 -178 -178 -261 -395 -245
-646 19 -317 198 -580 488 -714 128 -60 201 -75 353 -74 154 1 246 21 371 83
218 107 382 308 445 545 29 108 31 308 5 410 -78 304 -308 537 -611 620 -83
22 -281 28 -370 11z m-137 -704 l-3 -368 -25 -49 c-33 -64 -88 -95 -170 -95
-31 0 -59 2 -61 4 -3 3 -3 22 -1 43 l4 38 48 1 c27 0 56 7 66 15 41 34 44 64
44 422 0 189 3 347 7 350 3 4 26 7 50 7 l44 0 -3 -368z m340 158 c29 -113 68
-268 87 -345 18 -77 35 -133 38 -125 3 8 19 78 36 155 18 77 53 226 79 330
l47 190 55 0 55 0 22 -365 c12 -201 22 -395 22 -432 l1 -68 -45 0 -45 0 0 40
c0 42 -16 369 -26 550 l-6 105 -34 -140 c-18 -77 -57 -232 -87 -345 l-54 -205
-31 -3 c-18 -2 -32 -1 -32 2 0 2 -31 125 -69 273 -38 147 -78 306 -88 353
l-19 85 -7 -215 c-4 -118 -10 -279 -13 -357 l-7 -143 -44 0 c-38 0 -43 3 -43
22 0 34 39 693 46 776 l6 73 51 -3 52 -3 53 -205z"/>
</g>
</svg>
